<mxfile host="app.diagrams.net" agent="Mozilla/5.0 (Windows NT 10.0; Win64; x64) AppleWebKit/537.36 (KHTML, like Gecko) Chrome/137.0.0.0 Safari/537.36" version="27.1.6">
  <diagram name="Pagina-1" id="9Z0qmbIBlwwyVuVJR_Ji">
    <mxGraphModel dx="1042" dy="562" grid="1" gridSize="10" guides="1" tooltips="1" connect="1" arrows="1" fold="1" page="1" pageScale="1" pageWidth="827" pageHeight="1169" math="0" shadow="0">
      <root>
        <mxCell id="0" />
        <mxCell id="1" parent="0" />
        <mxCell id="6fgkhRLgYU22SDX5DoqN-1" value="Utente" style="rounded=0;whiteSpace=wrap;html=1;" vertex="1" parent="1">
          <mxGeometry x="80" y="280" width="100" height="50" as="geometry" />
        </mxCell>
        <mxCell id="6fgkhRLgYU22SDX5DoqN-2" value="Nota" style="rounded=0;whiteSpace=wrap;html=1;" vertex="1" parent="1">
          <mxGeometry x="530" y="280" width="110" height="50" as="geometry" />
        </mxCell>
        <mxCell id="6fgkhRLgYU22SDX5DoqN-3" value="" style="endArrow=none;html=1;rounded=0;exitX=1;exitY=0.5;exitDx=0;exitDy=0;entryX=0;entryY=0.5;entryDx=0;entryDy=0;" edge="1" parent="1" source="6fgkhRLgYU22SDX5DoqN-1" target="6fgkhRLgYU22SDX5DoqN-2">
          <mxGeometry width="50" height="50" relative="1" as="geometry">
            <mxPoint x="390" y="520" as="sourcePoint" />
            <mxPoint x="510" y="310" as="targetPoint" />
          </mxGeometry>
        </mxCell>
        <mxCell id="6fgkhRLgYU22SDX5DoqN-4" value="" style="endArrow=classic;html=1;rounded=0;entryX=0.5;entryY=1;entryDx=0;entryDy=0;" edge="1" parent="1" target="6fgkhRLgYU22SDX5DoqN-2">
          <mxGeometry width="50" height="50" relative="1" as="geometry">
            <mxPoint x="580" y="420" as="sourcePoint" />
            <mxPoint x="440" y="470" as="targetPoint" />
          </mxGeometry>
        </mxCell>
        <mxCell id="6fgkhRLgYU22SDX5DoqN-5" value="" style="endArrow=none;html=1;rounded=0;" edge="1" parent="1">
          <mxGeometry width="50" height="50" relative="1" as="geometry">
            <mxPoint x="530" y="420" as="sourcePoint" />
            <mxPoint x="640" y="420" as="targetPoint" />
            <Array as="points">
              <mxPoint x="580" y="420" />
            </Array>
          </mxGeometry>
        </mxCell>
        <mxCell id="6fgkhRLgYU22SDX5DoqN-6" value="" style="endArrow=none;html=1;rounded=0;" edge="1" parent="1">
          <mxGeometry width="50" height="50" relative="1" as="geometry">
            <mxPoint x="530" y="480" as="sourcePoint" />
            <mxPoint x="530" y="420" as="targetPoint" />
          </mxGeometry>
        </mxCell>
        <mxCell id="6fgkhRLgYU22SDX5DoqN-7" value="" style="endArrow=none;html=1;rounded=0;" edge="1" parent="1">
          <mxGeometry width="50" height="50" relative="1" as="geometry">
            <mxPoint x="640" y="480" as="sourcePoint" />
            <mxPoint x="640" y="420" as="targetPoint" />
          </mxGeometry>
        </mxCell>
        <mxCell id="6fgkhRLgYU22SDX5DoqN-8" value="Privata" style="rounded=0;whiteSpace=wrap;html=1;" vertex="1" parent="1">
          <mxGeometry x="480" y="480" width="90" height="40" as="geometry" />
        </mxCell>
        <mxCell id="6fgkhRLgYU22SDX5DoqN-9" value="Condivisa" style="rounded=0;whiteSpace=wrap;html=1;" vertex="1" parent="1">
          <mxGeometry x="600" y="480" width="90" height="40" as="geometry" />
        </mxCell>
        <mxCell id="6fgkhRLgYU22SDX5DoqN-10" value="Cartella" style="rounded=0;whiteSpace=wrap;html=1;" vertex="1" parent="1">
          <mxGeometry x="670" y="130" width="120" height="60" as="geometry" />
        </mxCell>
        <mxCell id="6fgkhRLgYU22SDX5DoqN-11" value="" style="endArrow=none;html=1;rounded=0;exitX=0.5;exitY=1;exitDx=0;exitDy=0;entryX=1;entryY=0.5;entryDx=0;entryDy=0;" edge="1" parent="1" source="6fgkhRLgYU22SDX5DoqN-10" target="6fgkhRLgYU22SDX5DoqN-2">
          <mxGeometry width="50" height="50" relative="1" as="geometry">
            <mxPoint x="390" y="520" as="sourcePoint" />
            <mxPoint x="440" y="470" as="targetPoint" />
            <Array as="points">
              <mxPoint x="730" y="305" />
            </Array>
          </mxGeometry>
        </mxCell>
        <mxCell id="6fgkhRLgYU22SDX5DoqN-12" value="0..*" style="text;html=1;align=center;verticalAlign=middle;whiteSpace=wrap;rounded=0;" vertex="1" parent="1">
          <mxGeometry x="470" y="280" width="60" height="30" as="geometry" />
        </mxCell>
        <mxCell id="6fgkhRLgYU22SDX5DoqN-13" value="0..1" style="text;html=1;align=center;verticalAlign=middle;resizable=0;points=[];autosize=1;strokeColor=none;fillColor=none;" vertex="1" parent="1">
          <mxGeometry x="180" y="280" width="40" height="30" as="geometry" />
        </mxCell>
        <mxCell id="6fgkhRLgYU22SDX5DoqN-14" value="creare &amp;gt;" style="text;html=1;align=center;verticalAlign=middle;whiteSpace=wrap;rounded=0;" vertex="1" parent="1">
          <mxGeometry x="360" y="280" width="60" height="30" as="geometry" />
        </mxCell>
        <mxCell id="6fgkhRLgYU22SDX5DoqN-23" value="" style="endArrow=none;html=1;rounded=0;exitX=0.75;exitY=0;exitDx=0;exitDy=0;" edge="1" parent="1" source="6fgkhRLgYU22SDX5DoqN-1">
          <mxGeometry width="50" height="50" relative="1" as="geometry">
            <mxPoint x="390" y="350" as="sourcePoint" />
            <mxPoint x="590" y="220" as="targetPoint" />
            <Array as="points">
              <mxPoint x="155" y="220" />
            </Array>
          </mxGeometry>
        </mxCell>
        <mxCell id="6fgkhRLgYU22SDX5DoqN-24" value="" style="endArrow=none;html=1;rounded=0;exitX=0.5;exitY=0;exitDx=0;exitDy=0;" edge="1" parent="1" source="6fgkhRLgYU22SDX5DoqN-2">
          <mxGeometry width="50" height="50" relative="1" as="geometry">
            <mxPoint x="600" y="250" as="sourcePoint" />
            <mxPoint x="585" y="220" as="targetPoint" />
          </mxGeometry>
        </mxCell>
        <mxCell id="6fgkhRLgYU22SDX5DoqN-25" value="gestisce &amp;gt;" style="text;html=1;align=center;verticalAlign=middle;whiteSpace=wrap;rounded=0;" vertex="1" parent="1">
          <mxGeometry x="380" y="180" width="60" height="30" as="geometry" />
        </mxCell>
        <mxCell id="6fgkhRLgYU22SDX5DoqN-26" value="0..1" style="text;html=1;align=center;verticalAlign=middle;whiteSpace=wrap;rounded=0;" vertex="1" parent="1">
          <mxGeometry x="120" y="250" width="60" height="30" as="geometry" />
        </mxCell>
        <mxCell id="6fgkhRLgYU22SDX5DoqN-27" value="0..*" style="text;html=1;align=center;verticalAlign=middle;whiteSpace=wrap;rounded=0;" vertex="1" parent="1">
          <mxGeometry x="540" y="240" width="50" height="30" as="geometry" />
        </mxCell>
        <mxCell id="6fgkhRLgYU22SDX5DoqN-29" value="" style="endArrow=none;html=1;rounded=0;entryX=0.5;entryY=1;entryDx=0;entryDy=0;exitX=0.5;exitY=0;exitDx=0;exitDy=0;" edge="1" parent="1">
          <mxGeometry width="50" height="50" relative="1" as="geometry">
            <mxPoint x="130" y="460" as="sourcePoint" />
            <mxPoint x="120" y="330" as="targetPoint" />
          </mxGeometry>
        </mxCell>
        <mxCell id="6fgkhRLgYU22SDX5DoqN-30" value="Permesso" style="rounded=0;whiteSpace=wrap;html=1;" vertex="1" parent="1">
          <mxGeometry x="80" y="460" width="120" height="60" as="geometry" />
        </mxCell>
        <mxCell id="6fgkhRLgYU22SDX5DoqN-31" value="" style="endArrow=none;html=1;rounded=0;exitX=0.5;exitY=1;exitDx=0;exitDy=0;" edge="1" parent="1" source="6fgkhRLgYU22SDX5DoqN-30" target="6fgkhRLgYU22SDX5DoqN-9">
          <mxGeometry width="50" height="50" relative="1" as="geometry">
            <mxPoint x="390" y="350" as="sourcePoint" />
            <mxPoint x="440" y="300" as="targetPoint" />
            <Array as="points">
              <mxPoint x="140" y="560" />
              <mxPoint x="645" y="560" />
            </Array>
          </mxGeometry>
        </mxCell>
        <mxCell id="6fgkhRLgYU22SDX5DoqN-32" value="0..*" style="text;html=1;align=center;verticalAlign=middle;whiteSpace=wrap;rounded=0;" vertex="1" parent="1">
          <mxGeometry x="70" y="430" width="60" height="30" as="geometry" />
        </mxCell>
        <mxCell id="6fgkhRLgYU22SDX5DoqN-37" value="Tag" style="rounded=0;whiteSpace=wrap;html=1;" vertex="1" parent="1">
          <mxGeometry x="410" y="80" width="120" height="60" as="geometry" />
        </mxCell>
        <mxCell id="6fgkhRLgYU22SDX5DoqN-39" value="" style="endArrow=none;html=1;rounded=0;exitX=1;exitY=0.5;exitDx=0;exitDy=0;entryX=0.75;entryY=0;entryDx=0;entryDy=0;" edge="1" parent="1" source="6fgkhRLgYU22SDX5DoqN-37" target="6fgkhRLgYU22SDX5DoqN-2">
          <mxGeometry width="50" height="50" relative="1" as="geometry">
            <mxPoint x="560" y="120" as="sourcePoint" />
            <mxPoint x="680" y="110" as="targetPoint" />
            <Array as="points">
              <mxPoint x="620" y="110" />
            </Array>
          </mxGeometry>
        </mxCell>
        <mxCell id="6fgkhRLgYU22SDX5DoqN-40" value="corrisponde &amp;gt;&amp;nbsp;" style="text;html=1;align=center;verticalAlign=middle;whiteSpace=wrap;rounded=0;" vertex="1" parent="1">
          <mxGeometry x="530" y="160" width="85" height="30" as="geometry" />
        </mxCell>
        <mxCell id="6fgkhRLgYU22SDX5DoqN-41" value="1" style="text;html=1;align=center;verticalAlign=middle;whiteSpace=wrap;rounded=0;" vertex="1" parent="1">
          <mxGeometry x="510" y="80" width="60" height="30" as="geometry" />
        </mxCell>
        <mxCell id="6fgkhRLgYU22SDX5DoqN-43" value="1" style="text;html=1;align=center;verticalAlign=middle;whiteSpace=wrap;rounded=0;" vertex="1" parent="1">
          <mxGeometry x="590" y="250" width="60" height="30" as="geometry" />
        </mxCell>
        <mxCell id="6fgkhRLgYU22SDX5DoqN-45" value="appartiene &amp;gt;&lt;div&gt;&lt;br&gt;&lt;/div&gt;" style="text;html=1;align=center;verticalAlign=middle;whiteSpace=wrap;rounded=0;" vertex="1" parent="1">
          <mxGeometry x="670" y="310" width="80" height="30" as="geometry" />
        </mxCell>
        <mxCell id="6fgkhRLgYU22SDX5DoqN-46" value="1" style="text;html=1;align=center;verticalAlign=middle;whiteSpace=wrap;rounded=0;" vertex="1" parent="1">
          <mxGeometry x="680" y="190" width="60" height="30" as="geometry" />
        </mxCell>
        <mxCell id="6fgkhRLgYU22SDX5DoqN-48" value="0..*" style="text;html=1;align=center;verticalAlign=middle;whiteSpace=wrap;rounded=0;" vertex="1" parent="1">
          <mxGeometry x="630" y="280" width="60" height="30" as="geometry" />
        </mxCell>
        <mxCell id="6fgkhRLgYU22SDX5DoqN-49" value="" style="endArrow=none;html=1;rounded=0;exitX=1;exitY=1;exitDx=0;exitDy=0;entryX=0;entryY=1;entryDx=0;entryDy=0;" edge="1" parent="1" source="6fgkhRLgYU22SDX5DoqN-1" target="6fgkhRLgYU22SDX5DoqN-2">
          <mxGeometry width="50" height="50" relative="1" as="geometry">
            <mxPoint x="390" y="350" as="sourcePoint" />
            <mxPoint x="440" y="300" as="targetPoint" />
          </mxGeometry>
        </mxCell>
        <mxCell id="6fgkhRLgYU22SDX5DoqN-50" value="elimina &amp;gt;" style="text;html=1;align=center;verticalAlign=middle;whiteSpace=wrap;rounded=0;" vertex="1" parent="1">
          <mxGeometry x="360" y="330" width="60" height="30" as="geometry" />
        </mxCell>
        <mxCell id="6fgkhRLgYU22SDX5DoqN-51" value="1" style="text;html=1;align=center;verticalAlign=middle;whiteSpace=wrap;rounded=0;" vertex="1" parent="1">
          <mxGeometry x="170" y="310" width="60" height="30" as="geometry" />
        </mxCell>
        <mxCell id="6fgkhRLgYU22SDX5DoqN-52" value="0..*" style="text;html=1;align=center;verticalAlign=middle;whiteSpace=wrap;rounded=0;" vertex="1" parent="1">
          <mxGeometry x="480" y="310" width="60" height="30" as="geometry" />
        </mxCell>
        <mxCell id="6fgkhRLgYU22SDX5DoqN-54" value="1" style="text;html=1;align=center;verticalAlign=middle;whiteSpace=wrap;rounded=0;" vertex="1" parent="1">
          <mxGeometry x="70" y="330" width="60" height="30" as="geometry" />
        </mxCell>
        <mxCell id="6fgkhRLgYU22SDX5DoqN-55" value="ottenere &amp;gt;" style="text;html=1;align=center;verticalAlign=middle;whiteSpace=wrap;rounded=0;" vertex="1" parent="1">
          <mxGeometry x="70" y="370" width="60" height="30" as="geometry" />
        </mxCell>
        <mxCell id="6fgkhRLgYU22SDX5DoqN-56" value="modifica &amp;gt;" style="text;html=1;align=center;verticalAlign=middle;whiteSpace=wrap;rounded=0;" vertex="1" parent="1">
          <mxGeometry x="390" y="555" width="60" height="30" as="geometry" />
        </mxCell>
        <mxCell id="6fgkhRLgYU22SDX5DoqN-57" value="1" style="text;html=1;align=center;verticalAlign=middle;whiteSpace=wrap;rounded=0;" vertex="1" parent="1">
          <mxGeometry x="120" y="520" width="60" height="30" as="geometry" />
        </mxCell>
        <mxCell id="6fgkhRLgYU22SDX5DoqN-58" value="0..*" style="text;html=1;align=center;verticalAlign=middle;whiteSpace=wrap;rounded=0;" vertex="1" parent="1">
          <mxGeometry x="640" y="520" width="60" height="30" as="geometry" />
        </mxCell>
        <mxCell id="6fgkhRLgYU22SDX5DoqN-59" value="Copia" style="rounded=0;whiteSpace=wrap;html=1;" vertex="1" parent="1">
          <mxGeometry x="310" y="430" width="80" height="50" as="geometry" />
        </mxCell>
        <mxCell id="6fgkhRLgYU22SDX5DoqN-62" value="" style="endArrow=none;html=1;rounded=0;entryX=0.684;entryY=1.028;entryDx=0;entryDy=0;entryPerimeter=0;exitX=0;exitY=0;exitDx=0;exitDy=0;" edge="1" parent="1">
          <mxGeometry width="50" height="50" relative="1" as="geometry">
            <mxPoint x="320" y="430" as="sourcePoint" />
            <mxPoint x="158.4000000000001" y="331.4" as="targetPoint" />
          </mxGeometry>
        </mxCell>
        <mxCell id="6fgkhRLgYU22SDX5DoqN-63" value="" style="endArrow=none;html=1;rounded=0;exitX=1;exitY=0;exitDx=0;exitDy=0;entryX=0.25;entryY=1;entryDx=0;entryDy=0;" edge="1" parent="1" source="6fgkhRLgYU22SDX5DoqN-59" target="6fgkhRLgYU22SDX5DoqN-2">
          <mxGeometry width="50" height="50" relative="1" as="geometry">
            <mxPoint x="390" y="350" as="sourcePoint" />
            <mxPoint x="440" y="300" as="targetPoint" />
          </mxGeometry>
        </mxCell>
        <mxCell id="6fgkhRLgYU22SDX5DoqN-64" value="fare &amp;gt;" style="text;html=1;align=center;verticalAlign=middle;whiteSpace=wrap;rounded=0;" vertex="1" parent="1">
          <mxGeometry x="200" y="390" width="60" height="30" as="geometry" />
        </mxCell>
        <mxCell id="6fgkhRLgYU22SDX5DoqN-65" value="1" style="text;html=1;align=center;verticalAlign=middle;whiteSpace=wrap;rounded=0;" vertex="1" parent="1">
          <mxGeometry x="140" y="340" width="60" height="30" as="geometry" />
        </mxCell>
        <mxCell id="6fgkhRLgYU22SDX5DoqN-67" value="0..*" style="text;html=1;align=center;verticalAlign=middle;whiteSpace=wrap;rounded=0;" vertex="1" parent="1">
          <mxGeometry x="260" y="420" width="60" height="30" as="geometry" />
        </mxCell>
        <mxCell id="6fgkhRLgYU22SDX5DoqN-68" value="1" style="text;html=1;align=center;verticalAlign=middle;whiteSpace=wrap;rounded=0;" vertex="1" parent="1">
          <mxGeometry x="520" y="330" width="60" height="30" as="geometry" />
        </mxCell>
        <mxCell id="6fgkhRLgYU22SDX5DoqN-69" value="0..*" style="text;html=1;align=center;verticalAlign=middle;whiteSpace=wrap;rounded=0;" vertex="1" parent="1">
          <mxGeometry x="390" y="420" width="60" height="30" as="geometry" />
        </mxCell>
        <mxCell id="6fgkhRLgYU22SDX5DoqN-70" value="corrisponde&amp;gt;" style="text;html=1;align=center;verticalAlign=middle;whiteSpace=wrap;rounded=0;" vertex="1" parent="1">
          <mxGeometry x="430" y="390" width="60" height="30" as="geometry" />
        </mxCell>
        <mxCell id="6fgkhRLgYU22SDX5DoqN-74" value="visualizza &amp;gt;" style="text;html=1;align=center;verticalAlign=middle;whiteSpace=wrap;rounded=0;" vertex="1" parent="1">
          <mxGeometry x="350" y="600" width="90" height="30" as="geometry" />
        </mxCell>
        <mxCell id="6fgkhRLgYU22SDX5DoqN-76" value="" style="endArrow=none;html=1;rounded=0;exitX=1;exitY=0.5;exitDx=0;exitDy=0;entryX=0;entryY=0.25;entryDx=0;entryDy=0;" edge="1" parent="1" source="6fgkhRLgYU22SDX5DoqN-9" target="6fgkhRLgYU22SDX5DoqN-1">
          <mxGeometry width="50" height="50" relative="1" as="geometry">
            <mxPoint x="690" y="500" as="sourcePoint" />
            <mxPoint x="20" y="220" as="targetPoint" />
            <Array as="points">
              <mxPoint x="750" y="500" />
              <mxPoint x="750" y="600" />
              <mxPoint x="40" y="600" />
              <mxPoint x="40" y="293" />
            </Array>
          </mxGeometry>
        </mxCell>
        <mxCell id="6fgkhRLgYU22SDX5DoqN-77" value="0..*" style="text;html=1;align=center;verticalAlign=middle;whiteSpace=wrap;rounded=0;" vertex="1" parent="1">
          <mxGeometry x="690" y="470" width="60" height="30" as="geometry" />
        </mxCell>
        <mxCell id="6fgkhRLgYU22SDX5DoqN-78" value="1" style="text;html=1;align=center;verticalAlign=middle;whiteSpace=wrap;rounded=0;" vertex="1" parent="1">
          <mxGeometry x="30" y="260" width="60" height="30" as="geometry" />
        </mxCell>
        <mxCell id="6fgkhRLgYU22SDX5DoqN-79" value="Versione" style="rounded=0;whiteSpace=wrap;html=1;" vertex="1" parent="1">
          <mxGeometry x="720" y="360" width="93" height="50" as="geometry" />
        </mxCell>
        <mxCell id="6fgkhRLgYU22SDX5DoqN-81" value="" style="endArrow=none;html=1;rounded=0;exitX=1;exitY=0;exitDx=0;exitDy=0;entryX=0;entryY=0.75;entryDx=0;entryDy=0;" edge="1" parent="1" source="6fgkhRLgYU22SDX5DoqN-9" target="6fgkhRLgYU22SDX5DoqN-79">
          <mxGeometry width="50" height="50" relative="1" as="geometry">
            <mxPoint x="700" y="450" as="sourcePoint" />
            <mxPoint x="750" y="400" as="targetPoint" />
          </mxGeometry>
        </mxCell>
        <mxCell id="6fgkhRLgYU22SDX5DoqN-82" value="1" style="text;html=1;align=center;verticalAlign=middle;whiteSpace=wrap;rounded=0;" vertex="1" parent="1">
          <mxGeometry x="650" y="450" width="60" height="30" as="geometry" />
        </mxCell>
        <mxCell id="6fgkhRLgYU22SDX5DoqN-83" value="1..*" style="text;html=1;align=center;verticalAlign=middle;whiteSpace=wrap;rounded=0;" vertex="1" parent="1">
          <mxGeometry x="670" y="380" width="60" height="30" as="geometry" />
        </mxCell>
        <mxCell id="6fgkhRLgYU22SDX5DoqN-84" value="possiede &amp;gt;" style="text;html=1;align=center;verticalAlign=middle;whiteSpace=wrap;rounded=0;" vertex="1" parent="1">
          <mxGeometry x="690" y="430" width="80" height="30" as="geometry" />
        </mxCell>
        <mxCell id="6fgkhRLgYU22SDX5DoqN-85" value="" style="endArrow=none;html=1;rounded=0;exitX=0.25;exitY=0;exitDx=0;exitDy=0;entryX=0;entryY=0.5;entryDx=0;entryDy=0;" edge="1" parent="1" source="6fgkhRLgYU22SDX5DoqN-1" target="6fgkhRLgYU22SDX5DoqN-37">
          <mxGeometry width="50" height="50" relative="1" as="geometry">
            <mxPoint x="115" y="200" as="sourcePoint" />
            <mxPoint x="165" y="150" as="targetPoint" />
            <Array as="points">
              <mxPoint x="105" y="110" />
            </Array>
          </mxGeometry>
        </mxCell>
        <mxCell id="6fgkhRLgYU22SDX5DoqN-86" value="1" style="text;html=1;align=center;verticalAlign=middle;whiteSpace=wrap;rounded=0;" vertex="1" parent="1">
          <mxGeometry x="60" y="240" width="60" height="30" as="geometry" />
        </mxCell>
        <mxCell id="6fgkhRLgYU22SDX5DoqN-87" value="0..*" style="text;html=1;align=center;verticalAlign=middle;whiteSpace=wrap;rounded=0;" vertex="1" parent="1">
          <mxGeometry x="350" y="110" width="60" height="30" as="geometry" />
        </mxCell>
        <mxCell id="6fgkhRLgYU22SDX5DoqN-88" value="cerca &amp;gt;" style="text;html=1;align=center;verticalAlign=middle;whiteSpace=wrap;rounded=0;" vertex="1" parent="1">
          <mxGeometry x="170" y="110" width="60" height="30" as="geometry" />
        </mxCell>
      </root>
    </mxGraphModel>
  </diagram>
</mxfile>
